<svg xmlns="http://www.w3.org/2000/svg" viewBox="0 0 120 120">
  <g>
    <path d="M60 30 C60 30 40 5 20 12 C0 19 4 48 22 55 C38 61 56 48 60 34 Z" fill="#3f8f82"/>
    <path d="M60 30 C60 30 80 5 100 12 C120 19 116 48 98 55 C82 61 64 48 60 34 Z" fill="#5cb3a5"/>
    <path d="M60 40 C60 40 44 58 26 62 C8 66 6 92 24 96 C40 100 58 84 60 62 Z" fill="#5cb3a5"/>
    <path d="M60 40 C60 40 76 58 94 62 C112 66 114 92 96 96 C80 100 62 84 60 62 Z" fill="#3f8f82"/>
    <ellipse cx="60" cy="55" rx="4" ry="30" fill="#233d38"/>
    <circle cx="60" cy="28" r="5" fill="#233d38"/>
    <path d="M58 24 C54 16 48 12 44 11" stroke="#233d38" stroke-width="2" fill="none" stroke-linecap="round"/>
    <path d="M62 24 C66 16 72 12 76 11" stroke="#233d38" stroke-width="2" fill="none" stroke-linecap="round"/>
    <circle cx="30" cy="30" r="4" fill="#f6efe0" opacity="0.7"/>
    <circle cx="90" cy="30" r="4" fill="#f6efe0" opacity="0.7"/>
    <circle cx="30" cy="78" r="5" fill="#f6efe0" opacity="0.6"/>
    <circle cx="90" cy="78" r="5" fill="#f6efe0" opacity="0.6"/>
  </g>
</svg>
