<svg xmlns="http://www.w3.org/2000/svg" viewBox="0 0 120 220">
  <g>
    <!-- ink nib tip -->
    <path d="M64 208 L58 196 L70 196 Z" fill="#2b2416"/>
    <path d="M61 197 L64 208 L67 197 Z" fill="#c98a2e"/>
    <!-- body of the pen -->
    <path d="M50 60 L64 200 L70 200 L80 58 Z" fill="#3f3220"/>
    <path d="M53 62 L64 196 L67 196 L77 60 Z" fill="#5c4a2e"/>
    <!-- gold band -->
    <rect x="49" y="70" width="32" height="7" rx="2" fill="#c98a2e" transform="rotate(-1 65 73)"/>
    <rect x="51" y="150" width="28" height="6" rx="2" fill="#c98a2e" transform="rotate(-1 65 153)"/>
    <!-- feather flights along the shaft -->
    <path d="M65 12 C40 22 26 46 30 76 C32 92 42 102 55 106 C56 78 58 44 65 12 Z" fill="#1f6d5a" opacity="0.9"/>
    <path d="M65 12 C90 22 104 46 100 76 C98 92 88 102 75 106 C74 78 72 44 65 12 Z" fill="#2a8f74"/>
    <path d="M65 18 L52 40 M65 18 L78 40 M65 30 L46 58 M65 30 L84 58 M65 50 L52 78 M65 50 L78 78"
          stroke="#155c49" stroke-width="1.3" fill="none" stroke-linecap="round" opacity="0.5"/>
  </g>
</svg>
